<svg width="117" height="19" viewBox="0 0 117 19" fill="none" xmlns="http://www.w3.org/2000/svg">
<g clip-path="url(#clip0_655_314)">
<path d="M42.2668 9.46937C42.2668 6.69423 42.2668 3.9191 42.2576 1.14204C42.2576 0.819621 42.3384 0.740934 42.6417 0.746692C44.5918 0.77356 46.5438 0.694874 48.4921 0.813863C50.0985 0.909822 51.7086 1.06528 53.1643 1.85982C55.6051 3.19173 56.9965 5.33929 57.4248 8.15089C57.7574 10.333 57.4928 12.4403 56.3514 14.3479C55.028 16.5627 53.0963 17.7929 50.6076 18.0673C47.9168 18.3629 45.2149 18.1805 42.5204 18.24C42.2043 18.24 42.2686 18.0481 42.2686 17.8735L42.2668 9.46937ZM45.9428 9.46937C45.9428 11.1966 45.9428 12.9239 45.9428 14.6512C45.9428 14.8296 45.906 14.9985 46.1872 14.9947C47.4242 14.9755 48.6648 15.0331 49.8963 14.845C50.8374 14.703 51.6957 14.3825 52.3886 13.6609C53.576 12.4268 53.8958 10.8972 53.8204 9.22755C53.7028 6.59828 52.2306 4.80192 49.7768 4.2492C48.6152 3.98819 47.4389 3.99395 46.2626 3.98243C45.9961 3.98243 45.9409 4.06879 45.9409 4.32788C45.9409 6.03596 45.9354 7.74978 45.9354 9.46361L45.9428 9.46937Z" fill="white"/>
<path d="M18.6962 9.46787C18.6962 6.69273 18.6962 3.91759 18.6962 1.14246C18.6962 0.818117 18.7826 0.745188 19.084 0.747107C22.3349 0.758622 25.5863 0.758622 28.8383 0.747107C29.1618 0.747107 29.2537 0.827713 29.2427 1.16933C29.2169 2.01185 29.2243 2.85629 29.2427 3.70073C29.2427 3.97133 29.1692 4.04234 28.9137 4.04042C26.8661 4.02891 24.8168 4.04042 22.7674 4.02699C22.4494 4.02699 22.3483 4.098 22.3575 4.44345C22.3814 5.45486 22.3796 6.46435 22.3575 7.47576C22.3575 7.80585 22.4255 7.90565 22.7582 7.90373C24.78 7.88646 26.8018 7.90373 28.8236 7.88454C29.1802 7.88454 29.2445 8.00353 29.2353 8.33747C29.2133 9.10514 29.2096 9.87281 29.2353 10.6405C29.2482 10.9994 29.1728 11.1126 28.8034 11.1088C26.7816 11.0877 24.78 11.1088 22.7674 11.0896C22.4182 11.0896 22.3428 11.197 22.3483 11.5367C22.3704 12.5597 22.3667 13.5845 22.3483 14.6074C22.3483 14.903 22.4347 14.9663 22.7012 14.9644C24.7506 14.9548 26.8 14.9644 28.8475 14.951C29.1563 14.951 29.2408 15.0354 29.2316 15.354C29.2114 16.2099 29.2169 17.0678 29.2316 17.9238C29.2316 18.179 29.1636 18.2443 28.9229 18.2424C25.6145 18.2347 22.3018 18.2347 18.9848 18.2424C18.6797 18.2424 18.6925 18.0946 18.6944 17.8739C18.6956 15.0706 18.6962 12.2686 18.6962 9.46787Z" fill="white"/>
<path d="M67.7929 8.71556C68.1973 8.87869 68.598 9.02263 68.9821 9.20303C70.5113 9.92081 71.5186 11.0781 71.6693 12.8763C71.82 14.6746 71.0536 16.0123 69.6934 17.0295C68.5465 17.8854 67.2323 18.2117 65.8465 18.2289C64.0544 18.2501 62.2624 18.2289 60.4722 18.2289C60.224 18.2289 60.1395 18.1771 60.1413 17.8988C60.1487 12.2961 60.1487 6.69338 60.1413 1.09065C60.1413 0.83924 60.1836 0.731766 60.4575 0.737524C62.0143 0.766311 63.5821 0.69914 65.1297 0.787422C66.0891 0.84116 67.0412 0.979341 67.9069 1.43994C69.2725 2.17691 70.096 3.32842 70.129 4.96356C70.1603 6.54113 69.403 7.67728 68.1275 8.46799C68.0172 8.55627 67.8775 8.57162 67.7929 8.71556ZM62.04 13.1623C62.04 14.1737 62.04 15.1832 62.04 16.1946C62.04 16.4307 62.0823 16.5343 62.3414 16.5285C63.5416 16.4978 64.7437 16.5689 65.9439 16.4595C66.8629 16.3769 67.7378 16.1927 68.4932 15.5939C70.0978 14.3234 70.0757 12.1068 68.4362 10.8823C67.8949 10.481 67.2766 10.2073 66.624 10.0801C65.2179 9.79222 63.7934 9.86707 62.3727 9.83828C62.0786 9.83828 62.0345 9.94 62.0382 10.2087C62.0492 11.1894 62.04 12.1739 62.04 13.1623ZM62.04 5.25528C62.04 6.08628 62.04 6.91729 62.04 7.75021C62.04 7.98435 62.0786 8.08799 62.3396 8.08799C63.1244 8.08799 63.9074 8.0688 64.6886 8.00354C65.5653 7.9287 66.4071 7.73678 67.1221 7.14567C68.6384 5.88861 68.4087 3.62589 66.6736 2.88317C66.4233 2.77898 66.1642 2.69931 65.8998 2.64519C64.6867 2.3957 63.4571 2.52044 62.233 2.48782C62.0106 2.48782 62.0492 2.62792 62.0492 2.76418L62.04 5.25528Z" fill="white"/>
<path d="M0.514699 7.20127C0.514699 5.18037 0.514699 3.15947 0.514699 1.13857C0.509185 0.860291 0.549621 0.743221 0.867596 0.74514C3.83658 0.759214 6.80557 0.759214 9.77456 0.74514C10.0282 0.74514 10.1072 0.808473 10.1017 1.081C10.0852 1.95039 10.0833 2.82169 10.1017 3.69108C10.1017 3.96553 10.0282 4.0231 9.77639 4.02118C8.0211 4.00967 6.26765 4.02118 4.51235 4.00967C4.24768 4.00967 4.14475 4.06149 4.16313 4.36088C4.18703 4.99997 4.18335 5.64097 4.16313 6.28006C4.16313 6.55642 4.24768 6.61975 4.49765 6.61784C6.24008 6.60824 7.98986 6.61784 9.72493 6.6044C10.0374 6.6044 10.1109 6.68884 10.1017 7.00359C10.0778 7.82116 10.0815 8.64065 10.1017 9.45822C10.1017 9.7461 10.0374 9.82287 9.75801 9.82095C8.02845 9.80751 6.29889 9.82095 4.56933 9.80559C4.24768 9.80559 4.15211 9.88236 4.1613 10.2259C4.18335 11.2623 4.1613 12.2986 4.17416 13.335C4.17416 13.596 4.11718 13.6862 3.85067 13.6823C2.8459 13.6644 1.8399 13.6644 0.832674 13.6823C0.566163 13.6823 0.514699 13.5941 0.514699 13.3369C0.520213 11.293 0.514699 9.24711 0.514699 7.20127Z" fill="white"/>
<path d="M105.45 9.47547C105.45 6.69842 105.45 3.92328 105.45 1.14623C105.45 0.829561 105.52 0.745117 105.83 0.745117C109.261 0.759191 112.697 0.759191 116.138 0.745117C116.412 0.745117 116.539 0.793097 116.506 1.11552C116.479 1.45977 116.479 1.80571 116.506 2.14996C116.524 2.41864 116.447 2.49349 116.186 2.48965C114.984 2.4743 113.78 2.48965 112.578 2.48965C110.969 2.48965 109.363 2.48965 107.755 2.48965C107.496 2.48965 107.387 2.53187 107.4 2.83702C107.416 4.42483 107.416 6.01135 107.4 7.59659C107.4 7.89023 107.475 7.95356 107.747 7.95164C110.521 7.94013 113.295 7.95164 116.068 7.93821C116.346 7.93821 116.46 7.99386 116.436 8.30861C116.409 8.65286 116.409 8.9988 116.436 9.34305C116.456 9.62709 116.379 9.70961 116.096 9.70577C114.193 9.69234 112.291 9.70577 110.389 9.70577C109.494 9.70577 108.597 9.70577 107.702 9.70577C107.483 9.70577 107.406 9.75567 107.407 9.99941C107.416 12.0721 107.416 14.1448 107.407 16.2176C107.407 16.5054 107.512 16.5457 107.751 16.5457C110.508 16.5457 113.265 16.5457 116.035 16.5342C116.347 16.5342 116.476 16.5918 116.439 16.9449C116.41 17.264 116.41 17.5854 116.439 17.9045C116.46 18.1847 116.386 18.2711 116.101 18.2672C114.789 18.248 113.475 18.2672 112.162 18.2672C110.039 18.2672 107.917 18.2672 105.794 18.2672C105.512 18.2672 105.454 18.1886 105.454 17.9084C105.45 15.0814 105.45 12.2775 105.45 9.47547Z" fill="white"/>
<path d="M31.5273 9.49079C31.5273 6.70414 31.5273 3.92517 31.5273 1.127C31.5273 0.816093 31.6137 0.743164 31.8949 0.743164C32.8764 0.760437 33.8597 0.764275 34.8357 0.743164C35.1463 0.743164 35.2199 0.829527 35.218 1.14427C35.2094 5.62236 35.2094 10.1005 35.218 14.5785C35.218 15.1274 35.1537 15.0583 35.6959 15.0583C37.2049 15.0583 38.7139 15.0583 40.2229 15.0583C40.4894 15.0583 40.5905 15.1102 40.5758 15.4115C40.5537 16.2425 40.5629 17.0735 40.5758 17.9064C40.5758 18.1329 40.5501 18.2442 40.2854 18.2442C37.4671 18.2327 34.6452 18.2327 31.8196 18.2442C31.5439 18.2442 31.5347 18.1156 31.5347 17.8987C31.5322 15.0954 31.5298 12.2928 31.5273 9.49079Z" fill="white"/>
<path d="M97.0742 18.2709C94.8281 18.2709 93.139 17.202 91.8579 15.3365C91.3984 14.6667 91.3929 14.6706 92.0913 14.2829C92.3872 14.1178 92.6979 13.8146 92.9791 13.8376C93.2603 13.8607 93.3816 14.3385 93.5875 14.6053C94.2749 15.4843 95.0579 16.2232 96.1441 16.5015C97.5484 16.8603 99.2687 16.2347 99.9837 15.087C100.535 14.2061 100.555 13.3041 100.017 12.4117C99.4966 11.55 98.7412 10.9243 97.9656 10.337C96.8628 9.50028 95.7269 8.70382 94.6112 7.88241C94.2663 7.63247 93.9488 7.34348 93.6647 7.0207C91.8267 4.9096 92.4608 1.92527 94.9935 0.7872C97.1256 -0.172391 99.4746 0.326596 101.243 2.13063C101.509 2.40123 101.75 2.70638 102.011 2.97315C102.123 3.09597 102.108 3.16507 101.974 3.26102C101.561 3.53739 101.147 3.81375 100.746 4.10738C100.583 4.22829 100.517 4.12849 100.425 4.02294C100.064 3.56607 99.6534 3.15509 99.2007 2.7985C98.0759 1.98861 96.8683 1.82164 95.6442 2.49143C94.5285 3.10173 94.2473 4.3991 94.9292 5.50647C95.2598 6.01521 95.6833 6.45086 96.1754 6.78848C97.4215 7.69625 98.7486 8.47736 99.947 9.47533C100.452 9.87398 100.918 10.324 101.338 10.8188C103.044 12.9145 102.774 15.4421 100.669 17.0926C99.6345 17.9063 98.5243 18.269 97.0742 18.2709Z" fill="white"/>
<path d="M72.7022 18.2324L74.6468 14.5054C76.975 10.0273 79.3031 5.55301 81.6313 1.0826C81.7268 0.890681 81.7967 0.740985 82.0577 0.746743C82.3187 0.7525 82.3628 0.909873 82.4492 1.07684C85.3214 6.6655 88.1935 12.2542 91.0657 17.8428C91.1227 17.9541 91.1723 18.0693 91.2495 18.2382C90.5676 18.2382 89.9262 18.2382 89.2847 18.2382C89.1009 18.2382 89.0788 18.0808 89.0182 17.9656L83.7799 7.86115C83.2113 6.76466 82.6391 5.66688 82.0632 4.56783C81.9125 4.65803 81.8794 4.81541 81.8095 4.95167C79.55 9.27366 77.2954 13.5989 75.0457 17.9273C75.0053 18.0308 74.9333 18.1175 74.841 18.1741C74.7486 18.2306 74.641 18.2538 74.5347 18.2401C73.9484 18.2209 73.3602 18.2324 72.7022 18.2324Z" fill="white"/>
<path d="M8.06334 14.9966C10.4527 14.9966 12.8422 14.9966 15.2426 14.9966C15.5403 14.9966 15.6469 15.0657 15.6378 15.3958C15.6145 16.2019 15.6145 17.0079 15.6378 17.814C15.6378 18.146 15.5624 18.2458 15.2316 18.2439C12.7282 18.2285 10.2248 18.2439 7.72148 18.2439C5.43868 18.2439 3.15588 18.2439 0.873078 18.2439C0.588187 18.2439 0.492611 18.1709 0.505477 17.86C0.527533 17.0425 0.527533 16.2236 0.505477 15.4035C0.505477 15.0907 0.577159 14.9947 0.88962 14.9966C3.27718 15.0024 5.67026 14.9966 8.06334 14.9966Z" fill="#14B8FF"/>
<path d="M11.9893 7.24324C11.9893 5.1974 11.9893 3.15155 11.9893 1.10187C11.9893 0.812069 12.0629 0.737221 12.3367 0.742978C13.3421 0.760251 14.3475 0.756413 15.3529 0.742978C15.5992 0.742978 15.6617 0.821665 15.6617 1.07116C15.6543 5.16541 15.6543 9.25966 15.6617 13.3539C15.6617 13.6264 15.5826 13.6936 15.329 13.6917C14.3242 13.6763 13.3188 13.6763 12.3128 13.6917C12.05 13.6917 11.9893 13.6092 11.9893 13.3462C11.9949 11.3081 11.9893 9.27566 11.9893 7.24324Z" fill="white"/>
<path d="M76.7219 18.2979C77.1667 17.4343 77.5803 16.6244 77.9994 15.8203C79.2039 13.5083 80.409 11.1957 81.6147 8.88241C81.7066 8.70393 81.7654 8.52928 82.0301 8.52736C82.2948 8.52544 82.3683 8.67514 82.462 8.85938L87.1103 17.916C87.2941 18.2998 87.2941 18.2998 86.9008 18.2998C86.4101 18.2998 85.9193 18.2998 85.4304 18.2998C85.3471 18.3099 85.263 18.2912 85.1909 18.2465C85.1188 18.2017 85.0628 18.1335 85.0316 18.0523C84.1113 16.261 83.1844 14.4743 82.2507 12.692C82.1937 12.5845 82.1716 12.4079 82.0411 12.4041C81.9106 12.4003 81.8886 12.5845 81.8334 12.6901C80.9034 14.4596 79.9715 16.229 79.0562 18.0081C79.0171 18.1061 78.9483 18.1879 78.8602 18.241C78.7722 18.294 78.6699 18.3154 78.5691 18.3018C77.9736 18.2864 77.3763 18.2979 76.7219 18.2979Z" fill="#14B8FF"/>
</g>
<defs>
<clipPath id="clip0_655_314">
<rect width="116" height="18" fill="white" transform="translate(0.5 0.303711)"/>
</clipPath>
</defs>
</svg>
