<svg width="166" height="25" viewBox="0 0 166 25" fill="none" xmlns="http://www.w3.org/2000/svg">
<g clip-path="url(#clip0_836_502)">
<path d="M59.769 12.7306C59.769 8.87624 59.769 5.02189 59.7559 1.16487C59.7559 0.717057 59.8716 0.60777 60.3056 0.615767C63.0963 0.653084 65.8896 0.543798 68.6777 0.70906C70.9765 0.842337 73.2806 1.05824 75.3637 2.16177C78.8567 4.01165 80.8478 6.99438 81.4606 10.8994C81.9367 13.9301 81.558 16.8568 79.9246 19.5064C78.0308 22.5824 75.2664 24.291 71.7051 24.6722C67.8544 25.0827 63.9879 24.8294 60.132 24.9121C59.6796 24.9121 59.7716 24.6455 59.7716 24.403L59.769 12.7306ZM65.0295 12.7306C65.0295 15.1296 65.0295 17.5286 65.0295 19.9275C65.0295 20.1754 64.9769 20.41 65.3793 20.4047C67.1495 20.378 68.9249 20.458 70.6872 20.1967C72.0338 19.9995 73.2622 19.5544 74.2538 18.5521C75.9529 16.8382 76.4106 14.7138 76.3027 12.3947C76.1344 8.74296 74.0276 6.24803 70.5162 5.48036C68.8539 5.11785 67.1705 5.12584 65.4872 5.10985C65.1058 5.10985 65.0269 5.2298 65.0269 5.58964C65.0269 7.96197 65.019 10.3423 65.019 12.7226L65.0295 12.7306Z" fill="#082954"/>
<path d="M26.0386 12.7279C26.0386 8.87358 26.0386 5.01923 26.0386 1.16487C26.0386 0.714398 26.1622 0.613108 26.5936 0.615773C31.2456 0.631767 35.8985 0.631767 40.5523 0.615773C41.0152 0.615773 41.1467 0.727726 41.1309 1.20219C41.0941 2.37236 41.1046 3.54519 41.1309 4.71802C41.1309 5.09386 41.0257 5.19249 40.6601 5.18982C37.73 5.17383 34.7973 5.18982 31.8646 5.17116C31.4096 5.17116 31.2649 5.26979 31.2781 5.74958C31.3122 7.15432 31.3096 8.55638 31.2781 9.96112C31.2781 10.4196 31.3754 10.5582 31.8514 10.5555C34.7447 10.5315 37.638 10.5555 40.5313 10.5289C41.0415 10.5289 41.1336 10.6941 41.1204 11.1579C41.0889 12.2242 41.0836 13.2904 41.1204 14.3566C41.1388 14.855 41.031 15.0123 40.5023 15.007C37.6091 14.9776 34.7447 15.007 31.8646 14.9803C31.3648 14.9803 31.257 15.1296 31.2649 15.6014C31.2965 17.0221 31.2912 18.4455 31.2649 19.8662C31.2649 20.2767 31.3885 20.3647 31.7699 20.362C34.7026 20.3487 37.6354 20.362 40.5654 20.3434C41.0073 20.3434 41.1283 20.4606 41.1152 20.9031C41.0862 22.0919 41.0941 23.2834 41.1152 24.4723C41.1152 24.8268 41.0178 24.9174 40.6733 24.9147C35.9388 24.9041 31.1983 24.9041 26.4516 24.9147C26.0149 24.9147 26.0333 24.7095 26.036 24.403C26.0377 20.5095 26.0386 16.6178 26.0386 12.7279Z" fill="#082954"/>
<path d="M96.2984 11.6831C96.877 11.9097 97.4504 12.1096 98.0002 12.3601C100.189 13.357 101.63 14.9644 101.846 17.462C102.061 19.9596 100.964 21.8174 99.0181 23.2302C97.3768 24.419 95.4962 24.8721 93.513 24.8961C90.9485 24.9254 88.384 24.8961 85.8221 24.8961C85.467 24.8961 85.346 24.8241 85.3487 24.4376C85.3592 16.6561 85.3592 8.8745 85.3487 1.09293C85.3487 0.74375 85.4092 0.594481 85.8011 0.602477C88.0289 0.64246 90.2725 0.549167 92.4872 0.671781C93.8602 0.746416 95.2226 0.938334 96.4615 1.57806C98.4157 2.60162 99.5941 4.20094 99.6414 6.47197C99.6861 8.66304 98.6025 10.241 96.7771 11.3392C96.6193 11.4618 96.4194 11.4832 96.2984 11.6831ZM88.0657 17.8591C88.0657 19.2638 88.0657 20.6659 88.0657 22.0707C88.0657 22.3985 88.1262 22.5425 88.4971 22.5345C90.2146 22.4918 91.9348 22.5904 93.6524 22.4385C94.9675 22.3239 96.2195 22.068 97.3005 21.2363C99.5967 19.4718 99.5652 16.3931 97.219 14.6925C96.4443 14.1351 95.5594 13.755 94.6256 13.5783C92.6134 13.1784 90.575 13.2824 88.5418 13.2424C88.121 13.2424 88.0578 13.3837 88.0631 13.7569C88.0789 15.119 88.0657 16.4864 88.0657 17.8591ZM88.0657 6.87713C88.0657 8.03131 88.0657 9.18548 88.0657 10.3423C88.0657 10.6675 88.121 10.8115 88.4945 10.8115C89.6176 10.8115 90.7381 10.7848 91.8559 10.6942C93.1105 10.5902 94.3152 10.3237 95.3384 9.50268C97.5083 7.75676 97.1795 4.6141 94.6966 3.58254C94.3384 3.43783 93.9677 3.32718 93.5892 3.25201C91.8533 2.90549 90.0936 3.07875 88.3419 3.03344C88.0236 3.03344 88.0789 3.22802 88.0789 3.41728L88.0657 6.87713Z" fill="#082954"/>
<path d="M0.021159 9.57991C0.021159 6.77311 0.021159 3.9663 0.021159 1.1595C0.0132682 0.773001 0.0711336 0.610404 0.526166 0.613069C4.77489 0.632617 9.02361 0.632617 13.2723 0.613069C13.6353 0.613069 13.7484 0.701032 13.7405 1.07954C13.7168 2.28702 13.7142 3.49717 13.7405 4.70466C13.7405 5.08583 13.6353 5.16579 13.275 5.16313C10.7631 5.14713 8.25383 5.16313 5.74194 5.14713C5.36319 5.14713 5.21589 5.2191 5.2422 5.63493C5.27639 6.52255 5.27113 7.41283 5.2422 8.30045C5.2422 8.68429 5.36319 8.77225 5.7209 8.76959C8.21437 8.75626 10.7184 8.76959 13.2013 8.75093C13.6485 8.75093 13.7537 8.86821 13.7405 9.30536C13.7063 10.4409 13.7116 11.5791 13.7405 12.7146C13.7405 13.1144 13.6485 13.221 13.2487 13.2184C10.7736 13.1997 8.29854 13.2184 5.82348 13.197C5.36319 13.197 5.22641 13.3037 5.23957 13.7808C5.27113 15.2202 5.23957 16.6596 5.25798 18.0989C5.25798 18.4615 5.17644 18.5867 4.79505 18.5814C3.35719 18.5565 1.91757 18.5565 0.476191 18.5814C0.0948058 18.5814 0.021159 18.4588 0.021159 18.1016C0.0290497 15.2628 0.021159 12.4214 0.021159 9.57991Z" fill="#082954"/>
<path d="M150.187 12.7387C150.187 8.88163 150.187 5.02728 150.187 1.17025C150.187 0.730442 150.286 0.613159 150.731 0.613159C155.641 0.632706 160.558 0.632706 165.481 0.613159C165.873 0.613159 166.055 0.679797 166.007 1.12761C165.969 1.60573 165.969 2.0862 166.007 2.56433C166.034 2.9375 165.923 3.04146 165.55 3.03613C163.83 3.0148 162.107 3.03613 160.387 3.03613C158.085 3.03613 155.786 3.03613 153.485 3.03613C153.114 3.03613 152.959 3.09477 152.977 3.51859C153 5.72387 153 7.92737 152.977 10.1291C152.977 10.5369 153.085 10.6249 153.474 10.6222C157.443 10.6062 161.412 10.6222 165.381 10.6036C165.779 10.6036 165.942 10.6809 165.908 11.118C165.869 11.5961 165.869 12.0766 165.908 12.5547C165.936 12.9492 165.826 13.0638 165.421 13.0585C162.699 13.0399 159.976 13.0585 157.254 13.0585C155.973 13.0585 154.69 13.0585 153.409 13.0585C153.096 13.0585 152.985 13.1278 152.988 13.4663C153 16.3451 153 19.2239 152.988 22.1027C152.988 22.5025 153.138 22.5585 153.48 22.5585C157.425 22.5585 161.37 22.5585 165.334 22.5425C165.781 22.5425 165.965 22.6224 165.913 23.1129C165.871 23.5561 165.871 24.0024 165.913 24.4457C165.942 24.8348 165.837 24.9548 165.429 24.9494C163.551 24.9228 161.67 24.9494 159.792 24.9494C156.754 24.9494 153.716 24.9494 150.678 24.9494C150.276 24.9494 150.192 24.8402 150.192 24.451C150.187 20.5247 150.187 16.6303 150.187 12.7387Z" fill="#082954"/>
<path d="M44.4004 12.76C44.4004 8.88961 44.4004 5.02992 44.4004 1.14358C44.4004 0.711764 44.524 0.610474 44.9264 0.610474C46.331 0.634463 47.7382 0.639794 49.1348 0.610474C49.5793 0.610474 49.6846 0.730423 49.6819 1.16757C49.6696 7.38714 49.6696 13.6067 49.6819 19.8263C49.6819 20.5886 49.5899 20.4927 50.3658 20.4927C52.5252 20.4927 54.6846 20.4927 56.8441 20.4927C57.2255 20.4927 57.3701 20.5646 57.3491 20.9831C57.3175 22.1373 57.3307 23.2915 57.3491 24.4483C57.3491 24.7628 57.3123 24.9174 56.9335 24.9174C52.9005 24.9014 48.8622 24.9014 44.8186 24.9174C44.4241 24.9174 44.4109 24.7388 44.4109 24.4376C44.4074 20.5442 44.4039 16.6516 44.4004 12.76Z" fill="#082954"/>
<path d="M138.2 24.9547C134.986 24.9547 132.569 23.47 130.736 20.8791C130.078 19.9489 130.07 19.9542 131.07 19.4158C131.493 19.1865 131.938 18.7654 132.34 18.7974C132.743 18.8293 132.916 19.4931 133.211 19.8636C134.195 21.0844 135.315 22.1106 136.87 22.4971C138.879 22.9956 141.341 22.1266 142.364 20.5326C143.153 19.3091 143.182 18.0563 142.411 16.8169C141.667 15.62 140.586 14.7511 139.476 13.9354C137.898 12.7733 136.273 11.6671 134.676 10.5262C134.182 10.1791 133.728 9.7777 133.321 9.3294C130.691 6.39731 131.599 2.25242 135.223 0.671756C138.274 -0.661009 141.636 0.0320294 144.166 2.53763C144.547 2.91347 144.892 3.33729 145.265 3.70779C145.426 3.87839 145.405 3.97435 145.213 4.10762C144.621 4.49146 144.029 4.8753 143.456 5.28312C143.222 5.45105 143.127 5.31244 142.995 5.16584C142.479 4.53129 141.891 3.9605 141.244 3.46523C139.634 2.34038 137.906 2.10848 136.154 3.03875C134.558 3.88638 134.155 5.68828 135.131 7.22629C135.604 7.93288 136.21 8.53795 136.914 9.00687C138.698 10.2677 140.597 11.3525 142.312 12.7386C143.035 13.2923 143.701 13.9173 144.303 14.6045C146.744 17.5152 146.357 21.0257 143.345 23.3181C141.864 24.4483 140.276 24.9521 138.2 24.9547Z" fill="#082954"/>
<path d="M103.324 24.9015L106.107 19.725C109.439 13.5054 112.77 7.2912 116.102 1.08229C116.239 0.815738 116.339 0.607827 116.712 0.615824C117.086 0.62382 117.149 0.842394 117.272 1.07429C121.383 8.83632 125.493 16.5983 129.603 24.3604C129.685 24.515 129.756 24.6749 129.866 24.9095C128.89 24.9095 127.972 24.9095 127.054 24.9095C126.791 24.9095 126.76 24.6909 126.673 24.531L119.177 10.4969C118.363 8.97404 117.544 7.44935 116.72 5.92289C116.504 6.04817 116.457 6.26675 116.357 6.456C113.124 12.4588 109.897 18.466 106.678 24.4776C106.62 24.6214 106.517 24.7419 106.385 24.8205C106.253 24.899 106.099 24.9312 105.947 24.9121C105.108 24.8855 104.266 24.9015 103.324 24.9015Z" fill="#082954"/>
<path d="M10.823 20.4074C14.2424 20.4074 17.6617 20.4074 21.0968 20.4074C21.5229 20.4074 21.6754 20.5033 21.6623 20.9618C21.629 22.0813 21.629 23.2009 21.6623 24.3204C21.6623 24.7815 21.5544 24.9201 21.081 24.9175C17.4986 24.8961 13.9162 24.9175 10.3338 24.9175C7.06705 24.9175 3.80029 24.9175 0.533523 24.9175C0.125835 24.9175 -0.0109374 24.8162 0.00747431 24.3844C0.0390372 23.2488 0.0390372 22.1115 0.00747431 20.9725C0.00747431 20.538 0.110054 20.4047 0.557195 20.4074C3.97388 20.4154 7.39846 20.4074 10.823 20.4074Z" fill="#14B8FF"/>
<path d="M16.4414 9.63855C16.4414 6.7971 16.4414 3.95564 16.4414 1.10886C16.4414 0.706365 16.5466 0.602409 16.9385 0.610406C18.3773 0.634395 19.816 0.629064 21.2548 0.610406C21.6072 0.610406 21.6966 0.719692 21.6966 1.06621C21.6861 6.75267 21.6861 12.4391 21.6966 18.1256C21.6966 18.5041 21.5835 18.5974 21.2206 18.5947C19.7827 18.5734 18.344 18.5734 16.9043 18.5947C16.5282 18.5947 16.4414 18.4801 16.4414 18.1149C16.4493 15.2841 16.4414 12.4613 16.4414 9.63855Z" fill="#082954"/>
<path d="M109.076 24.992C109.713 23.7925 110.304 22.6676 110.904 21.5508C112.628 18.3397 114.352 15.1278 116.078 11.9149C116.209 11.667 116.294 11.4244 116.672 11.4218C117.051 11.4191 117.156 11.627 117.29 11.8829L123.942 24.4615C124.205 24.9947 124.205 24.9947 123.642 24.9947C122.94 24.9947 122.238 24.9947 121.538 24.9947C121.419 25.0087 121.299 24.9826 121.196 24.9205C121.092 24.8584 121.012 24.7636 120.968 24.6508C119.651 22.163 118.324 19.6814 116.988 17.206C116.906 17.0567 116.875 16.8115 116.688 16.8061C116.501 16.8008 116.47 17.0567 116.391 17.2033C115.06 19.6609 113.726 22.1185 112.417 24.5895C112.361 24.7256 112.262 24.8392 112.136 24.9129C112.01 24.9866 111.864 25.0163 111.72 24.9973C110.867 24.976 110.013 24.992 109.076 24.992Z" fill="#14B8FF"/>
</g>
<defs>
<clipPath id="clip0_836_502">
<rect width="166" height="25" fill="white"/>
</clipPath>
</defs>
</svg>
